<?xml version="1.0" encoding="UTF-8" standalone="no"?>
<!-- Created with Sodipodi ("http://www.sodipodi.com/") -->
<svg
   xmlns:dc="http://purl.org/dc/elements/1.1/"
   xmlns:cc="http://web.resource.org/cc/"
   xmlns:rdf="http://www.w3.org/1999/02/22-rdf-syntax-ns#"
   xmlns:svg="http://www.w3.org/2000/svg"
   xmlns="http://www.w3.org/2000/svg"
   xmlns:xlink="http://www.w3.org/1999/xlink"
   xmlns:sodipodi="http://sodipodi.sourceforge.net/DTD/sodipodi-0.dtd"
   xmlns:inkscape="http://www.inkscape.org/namespaces/inkscape"
   width="128"
   height="128"
   viewBox="0 0 347.7998 347.7949"
   xml:space="preserve"
   id="svg606"
   sodipodi:version="0.32"
   sodipodi:docname="f-spot-logo-tango.svg"
   sodipodi:docbase="/home/sde/down/f-spot/icons"
   inkscape:version="0.44.1"
   version="1.0"><metadata
     id="metadata4652"><rdf:RDF><cc:Work
         rdf:about=""><dc:format>image/svg+xml</dc:format><dc:type
           rdf:resource="http://purl.org/dc/dcmitype/StillImage" /></cc:Work></rdf:RDF></metadata><sodipodi:namedview
     id="base"
     inkscape:zoom="1"
     inkscape:cx="277.57022"
     inkscape:cy="175.45804"
     inkscape:window-width="1301"
     inkscape:window-height="990"
     inkscape:window-x="91"
     inkscape:window-y="25"
     inkscape:current-layer="svg606"
     borderlayer="true"
     inkscape:showpageshadow="false"
     bordercolor="#bebebe"
     borderopacity="1"
     width="128px"
     height="128px" /><defs
     id="defs607"><linearGradient
       inkscape:collect="always"
       id="linearGradient6071"><stop
         style="stop-color:white;stop-opacity:1;"
         offset="0"
         id="stop6073" /><stop
         style="stop-color:white;stop-opacity:0;"
         offset="1"
         id="stop6075" /></linearGradient><linearGradient
       inkscape:collect="always"
       id="linearGradient5902"><stop
         style="stop-color:white;stop-opacity:1;"
         offset="0"
         id="stop5904" /><stop
         style="stop-color:white;stop-opacity:0;"
         offset="1"
         id="stop5906" /></linearGradient><linearGradient
       inkscape:collect="always"
       id="linearGradient5846"><stop
         style="stop-color:white;stop-opacity:1;"
         offset="0"
         id="stop5848" /><stop
         style="stop-color:white;stop-opacity:0;"
         offset="1"
         id="stop5850" /></linearGradient><linearGradient
       id="linearGradient5822"><stop
         style="stop-color:#d3d7cf;stop-opacity:1;"
         offset="0"
         id="stop5824" /><stop
         style="stop-color:white;stop-opacity:1;"
         offset="1"
         id="stop5826" /></linearGradient><linearGradient
       y2="74.766403"
       x2="41.1329"
       y1="291.77829"
       x1="135.96919"
       gradientUnits="userSpaceOnUse"
       id="aigrd8"><stop
         id="stop676"
         style="stop-color:#4A4A8C"
         offset="0" /><stop
         id="stop677"
         style="stop-color:#c1a9d2;stop-opacity:1;"
         offset="1" /></linearGradient><linearGradient
       inkscape:collect="always"
       xlink:href="#aigrd8"
       id="linearGradient5748"
       x1="282.87317"
       y1="324.60858"
       x2="119.17771"
       y2="69.966553"
       gradientUnits="userSpaceOnUse" /><linearGradient
       inkscape:collect="always"
       xlink:href="#aigrd8"
       id="linearGradient5750"
       x1="282.87317"
       y1="324.60858"
       x2="119.17771"
       y2="69.966553"
       gradientUnits="userSpaceOnUse" /><linearGradient
       inkscape:collect="always"
       xlink:href="#aigrd8"
       id="linearGradient5752"
       x1="282.87317"
       y1="324.60858"
       x2="119.17771"
       y2="69.966553"
       gradientUnits="userSpaceOnUse" /><linearGradient
       inkscape:collect="always"
       xlink:href="#aigrd8"
       id="linearGradient5754"
       x1="282.87317"
       y1="324.60858"
       x2="119.17771"
       y2="69.966553"
       gradientUnits="userSpaceOnUse" /><linearGradient
       inkscape:collect="always"
       xlink:href="#aigrd8"
       id="linearGradient5756"
       x1="282.87317"
       y1="324.60858"
       x2="119.17771"
       y2="69.966553"
       gradientUnits="userSpaceOnUse" /><linearGradient
       inkscape:collect="always"
       xlink:href="#aigrd8"
       id="linearGradient5758"
       x1="282.87317"
       y1="324.60858"
       x2="119.17771"
       y2="69.966553"
       gradientUnits="userSpaceOnUse" /><linearGradient
       inkscape:collect="always"
       xlink:href="#aigrd8"
       id="linearGradient5760"
       x1="282.87317"
       y1="324.60858"
       x2="119.17771"
       y2="69.966553"
       gradientUnits="userSpaceOnUse" /><linearGradient
       inkscape:collect="always"
       xlink:href="#linearGradient5822"
       id="linearGradient5828"
       x1="287.36819"
       y1="367.0282"
       x2="148.20958"
       y2="38.364971"
       gradientUnits="userSpaceOnUse" /><linearGradient
       inkscape:collect="always"
       xlink:href="#linearGradient5822"
       id="linearGradient5830"
       x1="287.36819"
       y1="367.0282"
       x2="148.20958"
       y2="38.364971"
       gradientUnits="userSpaceOnUse" /><linearGradient
       inkscape:collect="always"
       xlink:href="#linearGradient5822"
       id="linearGradient5832"
       x1="287.36819"
       y1="367.0282"
       x2="148.20958"
       y2="38.364971"
       gradientUnits="userSpaceOnUse" /><linearGradient
       inkscape:collect="always"
       xlink:href="#linearGradient5822"
       id="linearGradient5834"
       x1="287.36819"
       y1="367.0282"
       x2="148.20958"
       y2="38.364971"
       gradientUnits="userSpaceOnUse" /><linearGradient
       inkscape:collect="always"
       xlink:href="#linearGradient5822"
       id="linearGradient5836"
       x1="287.36819"
       y1="367.0282"
       x2="148.20958"
       y2="38.364971"
       gradientUnits="userSpaceOnUse" /><linearGradient
       inkscape:collect="always"
       xlink:href="#linearGradient5822"
       id="linearGradient5838"
       x1="287.36819"
       y1="367.0282"
       x2="148.20958"
       y2="38.364971"
       gradientUnits="userSpaceOnUse" /><linearGradient
       inkscape:collect="always"
       xlink:href="#linearGradient5822"
       id="linearGradient5840"
       x1="287.36819"
       y1="367.0282"
       x2="148.20958"
       y2="38.364971"
       gradientUnits="userSpaceOnUse" /><linearGradient
       inkscape:collect="always"
       xlink:href="#linearGradient5822"
       id="linearGradient5842"
       x1="287.36819"
       y1="367.0282"
       x2="148.20958"
       y2="38.364971"
       gradientUnits="userSpaceOnUse" /><linearGradient
       inkscape:collect="always"
       xlink:href="#linearGradient5846"
       id="linearGradient5852"
       x1="245.70514"
       y1="165.3644"
       x2="281.79224"
       y2="339.36441"
       gradientUnits="userSpaceOnUse"
       gradientTransform="matrix(0.964618,0,0,0.96462,9.176163,7.534743)" /><linearGradient
       inkscape:collect="always"
       xlink:href="#linearGradient5902"
       id="linearGradient5908"
       x1="263.25446"
       y1="107.92316"
       x2="292.64334"
       y2="246.32315"
       gradientUnits="userSpaceOnUse"
       gradientTransform="matrix(0.962904,0,0,0.962906,9.765672,5.19032)" /><linearGradient
       inkscape:collect="always"
       xlink:href="#linearGradient5822"
       id="linearGradient5971"
       gradientUnits="userSpaceOnUse"
       x1="287.36819"
       y1="367.0282"
       x2="148.20958"
       y2="38.364971" /><linearGradient
       inkscape:collect="always"
       xlink:href="#aigrd8"
       id="linearGradient5973"
       gradientUnits="userSpaceOnUse"
       x1="282.87317"
       y1="324.60858"
       x2="119.17771"
       y2="69.966553" /><linearGradient
       inkscape:collect="always"
       xlink:href="#linearGradient5822"
       id="linearGradient5975"
       gradientUnits="userSpaceOnUse"
       x1="287.36819"
       y1="367.0282"
       x2="148.20958"
       y2="38.364971" /><linearGradient
       inkscape:collect="always"
       xlink:href="#linearGradient5822"
       id="linearGradient5978"
       gradientUnits="userSpaceOnUse"
       x1="287.36819"
       y1="367.0282"
       x2="148.20958"
       y2="38.364971"
       gradientTransform="matrix(0.8,0,0,0.8,-3.613299e-6,0)" /><linearGradient
       inkscape:collect="always"
       xlink:href="#aigrd8"
       id="linearGradient5981"
       gradientUnits="userSpaceOnUse"
       x1="282.87317"
       y1="324.60858"
       x2="119.17771"
       y2="69.966553" /><linearGradient
       inkscape:collect="always"
       xlink:href="#linearGradient5822"
       id="linearGradient5984"
       gradientUnits="userSpaceOnUse"
       x1="287.36819"
       y1="367.0282"
       x2="148.20958"
       y2="38.364971" /><clipPath
       clipPathUnits="userSpaceOnUse"
       id="clipPath6018"><path
         id="path6012"
         d="M 119.31669,126.32972 L 5.6199935,166.02552 L 45.618819,280.93028 L 56.123561,277.21826 L 102.78886,178.04537 L 144.79172,197.76298 L 119.31669,126.32972 z "
         clip-path="none"
         mask="none"
         style="fill:black;fill-opacity:1;fill-rule:nonzero;stroke:none;stroke-width:1.41945601;stroke-miterlimit:4;stroke-opacity:1"
         sodipodi:nodetypes="ccccccc" /></clipPath><linearGradient
       inkscape:collect="always"
       xlink:href="#linearGradient5822"
       id="linearGradient6029"
       gradientUnits="userSpaceOnUse"
       x1="287.36819"
       y1="367.0282"
       x2="148.20958"
       y2="38.364971" /><linearGradient
       inkscape:collect="always"
       xlink:href="#aigrd8"
       id="linearGradient6031"
       gradientUnits="userSpaceOnUse"
       x1="282.87317"
       y1="324.60858"
       x2="119.17771"
       y2="69.966553" /><linearGradient
       inkscape:collect="always"
       xlink:href="#linearGradient5822"
       id="linearGradient6033"
       gradientUnits="userSpaceOnUse"
       x1="287.36819"
       y1="367.0282"
       x2="148.20958"
       y2="38.364971" /><linearGradient
       inkscape:collect="always"
       xlink:href="#aigrd8"
       id="linearGradient6035"
       gradientUnits="userSpaceOnUse"
       x1="282.87317"
       y1="324.60858"
       x2="119.17771"
       y2="69.966553" /><linearGradient
       inkscape:collect="always"
       xlink:href="#linearGradient6071"
       id="linearGradient6077"
       x1="185.68636"
       y1="249.84601"
       x2="178.99644"
       y2="376.646"
       gradientUnits="userSpaceOnUse"
       gradientTransform="matrix(0.963034,0,0,0.963033,7.575782,9.679785)" /></defs><defs
     id="defs609" /><path
     style="opacity:0.3;fill-rule:nonzero;stroke:none;stroke-miterlimit:4"
     d="M 118.9014,127.7905 L 133.5537,155.9243 L 130.8359,161.6059 L 118.9013,127.7905 L 118.9014,127.7905 z "
     id="path613"
     mask="none"
     clip-path="none" /><path
     style="opacity:0.3;fill-rule:nonzero;stroke:none;stroke-miterlimit:4"
     d="M 165.8633,102.312 L 150.3906,134.6592 L 157.1982,132.2564 L 165.8632,102.3121 L 165.8633,102.312 z "
     id="path614"
     mask="none"
     clip-path="none" /><path
     style="opacity:0.3;fill-rule:nonzero;stroke:none;stroke-miterlimit:4"
     d="M 183.2539,129.4321 L 217.0732,117.4985 L 188.7089,132.0405 L 183.2538,129.4321 L 183.2539,129.4321 z "
     id="path615"
     mask="none"
     clip-path="none" /><path
     style="opacity:0.3;fill-rule:nonzero;stroke:none;stroke-miterlimit:4"
     d="M 210.2061,148.981 L 212.4112,155.2261 L 243.5714,168.7085 L 275.6739,95.1997 L 242.5557,164.4536 L 210.2061,148.9809 L 210.2061,148.981 z "
     id="path616"
     mask="none"
     clip-path="none" /><path
     style="opacity:0.3;fill-rule:nonzero;stroke:none;stroke-miterlimit:4"
     d="M 227.3691,215.6665 L 230.4013,218.6997 L 299.7577,190.1186 L 227.369,215.6665 L 227.3691,215.6665 z "
     id="path617"
     mask="none"
     clip-path="none" /><path
     style="opacity:0.3;fill-rule:nonzero;stroke:none;stroke-miterlimit:4"
     d="M 180.4141,241.1479 L 244.5098,276.0859 L 249.6592,274.2695 L 180.4141,241.1479 L 180.4141,241.1479 z "
     id="path618"
     mask="none"
     clip-path="none" /><path
     style="opacity:0.3;fill-rule:nonzero;stroke:none;stroke-miterlimit:4"
     d="M 154.7451,298.3506 L 150.0625,296.1065 L 129.5986,227.7398 L 154.7451,298.3506 z "
     id="path619"
     mask="none"
     clip-path="none" /><path
     style="opacity:0.14857142;fill-rule:nonzero;stroke:black;stroke-width:6.4000001;stroke-miterlimit:4;stroke-dasharray:none;stroke-opacity:1"
     d="M 339.0488,187.7497 L 329.1133,182.9977 L 339.5,179.3307 L 299.916,67.1486 L 289.5176,70.8171 L 294.2715,60.8772 L 186.9521,9.5412 L 182.2031,19.4753 L 178.54,9.0998 L 66.3555,48.6867 L 70.0205,59.0739 L 60.084,54.3215 L 8.751,161.6462 L 18.6875,166.3991 L 8.3008,170.0651 L 47.8965,282.2423 L 58.2822,278.5802 L 53.5302,288.5138 L 160.8515,339.8478 L 165.6035,329.9103 L 169.2695,340.2951 L 281.4531,300.7131 L 277.7871,290.3244 L 287.7158,295.0744 L 339.0488,187.7497 z M 144.4951,201.1042 L 134.4326,172.5935 L 147.4922,145.2903 L 176.0127,135.2288 L 203.2998,148.2801 L 213.3721,176.8094 L 200.3203,204.0965 L 171.7988,214.1639 L 144.4951,201.1043 L 144.4951,201.1042 z "
     id="path620"
     mask="none"
     clip-path="none" /><path
     id="path622"
     d="M 160.0859,336.8779 L 52.7646,285.5439 L 103.7236,179.0014 L 211.0468,230.3334 L 160.0859,336.8778 L 160.0859,336.8779 z "
     style="fill:url(#linearGradient5828);fill-opacity:1;fill-rule:nonzero;stroke:#204a87;stroke-width:2.21790004;stroke-miterlimit:4;stroke-opacity:1"
     mask="none"
     clip-path="none" /><path
     id="path626"
     d="M 168.6631,305.0049 L 72.1856,258.8594 L 106.5469,187.0181 L 203.0254,233.1617 L 168.6631,305.005 L 168.6631,305.0049 z "
     style="fill:url(#linearGradient5750);fill-opacity:1;fill-rule:nonzero;stroke:#204a87;stroke-width:1.62650001;stroke-miterlimit:4"
     mask="none"
     clip-path="none" /><path
     inkscape:transform-center-y="115.9542"
     inkscape:transform-center-x="26.575614"
     sodipodi:nodetypes="ccccc"
     id="path5910"
     d="M 202.4,141.1949 L 204.6,147.3949 L 245.2,169.7949 L 283.4,77.194898 L 202.4,141.1949 z "
     style="opacity:0.42857145;fill:black;fill-opacity:1;fill-rule:evenodd;stroke:none;stroke-width:1px;stroke-linecap:butt;stroke-linejoin:miter;stroke-opacity:1"
     transform="matrix(-0.698374,0.715734,-0.715734,-0.698374,420.8286,170.443)"
     mask="none"
     clip-path="none" /><path
     id="path628"
     d="M 280.6875,297.7432 L 168.5039,337.3272 L 129.1953,225.9595 L 241.3838,186.3648 L 280.6875,297.7432 z "
     style="fill:url(#linearGradient5842);fill-opacity:1;fill-rule:nonzero;stroke:#204a87;stroke-width:2.21790004;stroke-miterlimit:4"
     mask="none"
     clip-path="none" /><path
     id="path632"
     d="M 264.2119,269.1328 L 163.3672,304.7217 L 136.8613,229.6255 L 237.7177,194.0298 L 264.2118,269.1328 L 264.2119,269.1328 z "
     style="fill:url(#linearGradient5748);fill-opacity:1;fill-rule:nonzero;stroke:#204a87;stroke-width:1.62650001;stroke-miterlimit:4"
     mask="none"
     clip-path="none" /><path
     clip-path="none"
     mask="none"
     style="fill:none;fill-opacity:1;fill-rule:nonzero;stroke:url(#linearGradient6077);stroke-width:2.21790004;stroke-miterlimit:4;stroke-opacity:1"
     d="M 277.88739,296.41631 L 169.85077,334.53701 L 131.99525,227.28624 L 240.03659,189.15524 L 277.88739,296.41631 z "
     id="path6069" /><path
     transform="matrix(5.961992e-4,1,-1,5.961992e-4,348.2909,-0.708693)"
     style="opacity:0.42857145;fill:black;fill-opacity:1;fill-rule:evenodd;stroke:none;stroke-width:1px;stroke-linecap:butt;stroke-linejoin:miter;stroke-opacity:1"
     d="M 202.4,141.1949 L 204.6,147.3949 L 245.2,169.7949 L 283.4,77.194898 L 202.4,141.1949 z "
     id="path5888"
     sodipodi:nodetypes="ccccc"
     inkscape:transform-center-x="-63.066966"
     inkscape:transform-center-y="85.451886"
     mask="none"
     clip-path="none" /><path
     id="path634"
     d="M 338.2832,184.7808 L 286.9502,292.1045 L 180.4141,241.148 L 231.7452,133.8243 L 338.2833,184.7808 L 338.2832,184.7808 z "
     style="fill:url(#linearGradient5840);fill-opacity:1;fill-rule:nonzero;stroke:#204a87;stroke-width:2.4000001;stroke-miterlimit:4;stroke-dasharray:none"
     mask="none"
     clip-path="none" /><path
     id="path638"
     d="M 306.416,176.1958 L 260.2695,272.6777 L 188.4257,238.3139 L 234.5722,141.8329 L 306.416,176.1957 L 306.416,176.1958 z "
     style="fill:url(#linearGradient5760);fill-opacity:1;fill-rule:nonzero;stroke:#204a87;stroke-width:1.62650001;stroke-miterlimit:4"
     mask="none"
     clip-path="none" /><path
     style="fill:none;fill-opacity:1;fill-rule:nonzero;stroke:url(#linearGradient5852);stroke-width:2.2178998;stroke-miterlimit:4;stroke-opacity:1"
     d="M 335.49023,185.778 L 285.97349,289.30459 L 183.20685,240.15093 L 232.72175,136.62434 L 335.49032,185.778 L 335.49023,185.778 z "
     id="path5844"
     mask="none"
     clip-path="none" /><path
     inkscape:transform-center-y="27.984168"
     inkscape:transform-center-x="-115.79124"
     sodipodi:nodetypes="ccccc"
     id="path5868"
     d="M 202.4,141.1949 L 204.6,147.3949 L 245.2,169.7949 L 283.4,77.194898 L 202.4,141.1949 z "
     style="opacity:0.42857145;fill:black;fill-opacity:1;fill-rule:evenodd;stroke:none;stroke-width:1px;stroke-linecap:butt;stroke-linejoin:miter;stroke-opacity:1"
     transform="matrix(0.699099,0.715025,-0.715025,0.699099,176.8465,-72.44669)"
     mask="none"
     clip-path="none" /><path
     id="path640"
     d="M 299.1504,64.1797 L 338.7344,176.3609 L 227.3692,215.6666 L 187.7745,103.485 L 299.1505,64.1798 L 299.1504,64.1797 z "
     style="fill:url(#linearGradient5838);fill-opacity:1;fill-rule:nonzero;stroke:#204a87;stroke-width:2.4000001;stroke-miterlimit:4;stroke-dasharray:none"
     mask="none"
     clip-path="none" /><path
     id="path644"
     d="M 270.54,80.6548 L 306.1298,181.4888 L 231.0331,208.0054 L 195.4433,107.1431 L 270.54,80.6548 z "
     style="fill:url(#linearGradient5758);fill-opacity:1;fill-rule:nonzero;stroke:#204a87;stroke-width:1.62650001;stroke-miterlimit:4"
     mask="none"
     clip-path="none" /><path
     style="opacity:0.42857145;fill:black;fill-opacity:1;fill-rule:evenodd;stroke:none;stroke-width:1px;stroke-linecap:butt;stroke-linejoin:miter;stroke-opacity:1"
     d="M 202.4,141.1949 L 204.6,147.3949 L 245.2,169.7949 L 283.4,77.194898 L 202.4,141.1949 z "
     id="path5854"
     sodipodi:nodetypes="ccccc"
     inkscape:transform-center-x="-85.5"
     inkscape:transform-center-y="-63"
     mask="none"
     clip-path="none" /><path
     style="fill:none;fill-opacity:1;fill-rule:nonzero;stroke:url(#linearGradient5908);stroke-width:2.21790004;stroke-miterlimit:4;stroke-opacity:1"
     d="M 297.81879,66.989338 L 335.93438,175.00929 L 228.70038,212.85698 L 190.57449,104.83665 L 297.81889,66.989434 L 297.81879,66.989338 z "
     id="path5892"
     mask="none"
     clip-path="none" /><path
     id="path646"
     d="M 186.1865,6.5723 L 293.5058,57.9082 L 242.5556,164.4536 L 135.2275,113.1177 L 186.1865,6.5723 L 186.1865,6.5723 z "
     style="fill:url(#linearGradient5836);fill-opacity:1;fill-rule:nonzero;stroke:#204a87;stroke-width:2.4000001;stroke-miterlimit:4;stroke-dasharray:none"
     mask="none"
     clip-path="none" /><path
     id="path650"
     d="M 177.6055,38.4517 L 274.0869,84.5894 L 239.7217,156.44 L 143.2432,110.2945 L 177.6055,38.4517 z "
     style="fill:url(#linearGradient5756);fill-opacity:1;fill-rule:nonzero;stroke:#204a87;stroke-width:1.62650001;stroke-miterlimit:4"
     mask="none"
     clip-path="none" /><path
     id="path652"
     d="M 65.5898,45.7178 L 177.7744,6.1299 L 217.0732,117.4986 L 104.8906,157.0855 L 65.5898,45.7178 z "
     style="fill:url(#linearGradient5834);fill-opacity:1;fill-rule:nonzero;stroke:#204a87;stroke-width:2.4000001;stroke-miterlimit:4;stroke-dasharray:none"
     mask="none"
     clip-path="none" /><path
     id="path656"
     d="M 82.0576,74.3247 L 182.8984,38.7368 L 209.4072,113.832 L 108.5547,149.4233 L 82.0576,74.3247 z "
     style="fill:url(#linearGradient5754);fill-opacity:1;fill-rule:nonzero;stroke:#204a87;stroke-width:1.62650001;stroke-miterlimit:4"
     mask="none"
     clip-path="none" /><g
     id="g6014"><path
       mask="none"
       style="fill:url(#linearGradient5832);fill-opacity:1;fill-rule:nonzero;stroke:#204a87;stroke-width:2.4000001;stroke-miterlimit:4;stroke-dasharray:none"
       d="M 7.9854,158.6772 L 59.3184,51.352 L 165.8633,102.312 L 132.12609,172.84653 L 98.9293,168.4362 L 85.753878,195.87317 L 7.9854,158.6772 z "
       id="path663"
       clip-path="none"
       sodipodi:nodetypes="ccccccc" /><path
       mask="none"
       style="fill:url(#linearGradient5752);fill-opacity:1;fill-rule:nonzero;stroke:#204a87;stroke-width:1.62650001;stroke-miterlimit:4"
       d="M 39.8564,167.2544 L 86,70.7798 L 157.8457,105.1353 L 127.28979,169.02048 L 98.8992,167.2167 L 62.143179,154.73184 L 39.8564,167.2544 L 39.8564,167.2544 z "
       id="path667"
       clip-path="none"
       sodipodi:nodetypes="cccccccc" /></g><g
     clip-path="url(#clipPath6018)"
     id="g6006"
     transform="translate(-0.4,0)"><path
       clip-path="none"
       id="path6008"
       d="M 47.1309,279.2725 L 7.5352,167.0962 L 118.9014,127.7905 L 158.4942,239.9731 L 47.1309,279.2725 z "
       style="fill:url(#linearGradient6029);fill-opacity:1;fill-rule:nonzero;stroke:#204a87;stroke-width:2.21790004;stroke-miterlimit:4;stroke-opacity:1"
       mask="none" /><path
       clip-path="none"
       id="path6010"
       d="M 75.7285,262.8047 L 40.1416,161.9604 L 115.2344,135.457 L 150.8282,236.3071 L 75.7286,262.8047 L 75.7285,262.8047 z "
       style="color:black;fill:url(#linearGradient6031);fill-opacity:1;fill-rule:nonzero;stroke:#204a87;stroke-width:1.62650001;stroke-linecap:butt;stroke-linejoin:miter;marker:none;marker-start:none;marker-mid:none;marker-end:none;stroke-miterlimit:4;stroke-dasharray:none;stroke-dashoffset:0;stroke-opacity:1;visibility:visible;display:inline;overflow:visible"
       mask="none" /></g></svg>